# xmcd CD database file
#
# Track frame offsets:
#	150
#	20098
#	44349
#	63838
#	87067
#	104503
#	121735
#	137170
#	151906
#	169881
#	182229
#	194872
#	216595
#	231704
#	256745
#	271419
#	289855
#	308224
#	325025
#	340643
#
# Disc length: 4798 seconds
#
# Revision: 3
# Processed by: cddbd v1.5.2PL0 Copyright (c) Steve Scherf et al.
# Submitted via: CDex 1.50
#
DISCID=3012bc14
DTITLE=Verschiedene - Die ultimative Chart Show - Die Erfolgreichsten Hits der Welt CD01
DYEAR=2012
DGENRE=Pop
TTITLE0=I will always love you - Whitney Houston
TTITLE1=I'd do anything for love (but I won't do that) - Meat Loaf
TTITLE2=It must have been love - Roxette
TTITLE3=Nothing compares 2 U - Sinéad O'Connor
TTITLE4=Up where we belong - Joe Cocker - Jennifer Warnes
TTITLE5=Candle in the wind - Elton John
TTITLE6=Seasons in the sun - Terry Jacks
TTITLE7=In the year 2525 - Zager and Evans
TTITLE8=Spirit in the sky - Norman Greenbaum
TTITLE9=I'm a believer - The Monkees
TTITLE10=Sugar, sugar - The Archies
TTITLE11=The Grease mega mix - Olivia Newton-John - John Travolta
TTITLE12=Rock your baby - George McCrae
TTITLE13=Fairground - Simply Red
TTITLE14=Lovefool - The Cardigans
TTITLE15=Torn - Natalie Imbruglia
TTITLE16=Love is all around - Wet Wet Wet
TTITLE17=How you remind me - Nickelback
TTITLE18=To be with you - Mr. Big
TTITLE19=Hallelujah - Jeff Buckley
EXTD=YEAR: 2012
EXTT0=
EXTT1=
EXTT2=
EXTT3=
EXTT4=
EXTT5=
EXTT6=
EXTT7=
EXTT8=
EXTT9=
EXTT10=
EXTT11=
EXTT12=
EXTT13=
EXTT14=
EXTT15=
EXTT16=
EXTT17=
EXTT18=
EXTT19=
PLAYORDER=
